<svg width="43" height="42" viewBox="0 0 43 42" fill="none" xmlns="http://www.w3.org/2000/svg">
<path d="M27 37.9999H39V36.3499C38.1667 35.5833 37.2333 34.9999 36.2 34.5999C35.1667 34.1999 34.1 33.9999 33 33.9999C31.9 33.9999 30.8333 34.1999 29.8 34.5999C28.7667 34.9999 27.8333 35.5833 27 36.3499V37.9999ZM33 31.9999C33.8333 31.9999 34.5417 31.7083 35.125 31.1249C35.7083 30.5416 36 29.8333 36 28.9999C36 28.1666 35.7083 27.4583 35.125 26.8749C34.5417 26.2916 33.8333 25.9999 33 25.9999C32.1667 25.9999 31.4583 26.2916 30.875 26.8749C30.2917 27.4583 30 28.1666 30 28.9999C30 29.8333 30.2917 30.5416 30.875 31.1249C31.4583 31.7083 32.1667 31.9999 33 31.9999ZM21.1 12.9999C19.1667 12.9999 17.5167 13.6833 16.15 15.0499C14.7833 16.4166 14.1 18.0666 14.1 19.9999C14.1 21.5999 14.55 22.9999 15.45 24.1999C16.35 25.3999 17.5333 26.2333 19 26.6999C19 25.9333 19.0083 25.1999 19.025 24.4999C19.0417 23.7999 19.1833 23.1666 19.45 22.5999C18.9833 22.3333 18.6417 21.9666 18.425 21.4999C18.2083 21.0333 18.1 20.5333 18.1 19.9999C18.1 19.1666 18.3917 18.4583 18.975 17.8749C19.5583 17.2916 20.2667 16.9999 21.1 16.9999C21.6 16.9999 22.075 17.1249 22.525 17.3749C22.975 17.6249 23.35 17.9666 23.65 18.3999C24.0167 18.2333 24.4 18.1166 24.8 18.0499C25.2 17.9833 25.6 17.9499 26 17.9499H27.8C27.3667 16.5166 26.5417 15.3333 25.325 14.3999C24.1083 13.4666 22.7 12.9999 21.1 12.9999ZM15.5 39.9999L14.7 33.5999C14.2667 33.4333 13.8583 33.2333 13.475 32.9999C13.0917 32.7666 12.7167 32.5166 12.35 32.2499L6.39999 34.7499L0.899994 25.2499L6.04999 21.3499C6.01666 21.1166 5.99999 20.8916 5.99999 20.6749V19.3249C5.99999 19.1083 6.01666 18.8833 6.04999 18.6499L0.899994 14.7499L6.39999 5.24994L12.35 7.74994C12.7167 7.48327 13.1 7.23327 13.5 6.99994C13.9 6.76661 14.3 6.56661 14.7 6.39994L15.5 -6.10352e-05H26.5L27.3 6.39994C27.7333 6.56661 28.1417 6.76661 28.525 6.99994C28.9083 7.23327 29.2833 7.48327 29.65 7.74994L35.6 5.24994L41.1 14.7499L36.85 17.9999H31.8C31.7667 17.8333 31.7333 17.6583 31.7 17.4749C31.6667 17.2916 31.6167 17.1166 31.55 16.9499L35.85 13.6999L33.9 10.2999L28.95 12.3999C28.2167 11.6333 27.4083 10.9916 26.525 10.4749C25.6417 9.95827 24.6833 9.56661 23.65 9.29994L23 3.99994H19.05L18.35 9.29994C17.3167 9.56661 16.3583 9.95827 15.475 10.4749C14.5917 10.9916 13.7833 11.6166 13.05 12.3499L8.1 10.2999L6.14999 13.6999L10.45 16.8999C10.2833 17.3999 10.1667 17.8999 10.1 18.3999C10.0333 18.8999 10 19.4333 10 19.9999C10 20.5333 10.0333 21.0499 10.1 21.5499C10.1667 22.0499 10.2833 22.5499 10.45 23.0499L6.14999 26.2999L8.1 29.6999L13.05 27.5999C13.85 28.4333 14.75 29.1333 15.75 29.6999C16.75 30.2666 17.8333 30.6333 19 30.7999V39.9999H15.5ZM26 41.9999C25.1667 41.9999 24.4583 41.7083 23.875 41.1249C23.2917 40.5416 23 39.8333 23 38.9999V24.9999C23 24.1666 23.2917 23.4583 23.875 22.8749C24.4583 22.2916 25.1667 21.9999 26 21.9999H40C40.8333 21.9999 41.5417 22.2916 42.125 22.8749C42.7083 23.4583 43 24.1666 43 24.9999V38.9999C43 39.8333 42.7083 40.5416 42.125 41.1249C41.5417 41.7083 40.8333 41.9999 40 41.9999H26Z" fill="white"/>
</svg>
