<svg width="16" height="11" viewBox="0 0 16 11" fill="none" xmlns="http://www.w3.org/2000/svg">
<path d="M0.5 10.25V8.75H8V10.25H0.5ZM0.5 6.5V5H4.25V6.5H0.5ZM0.5 2.75V1.25H4.25V2.75H0.5ZM14.45 10.25L11.5625 7.3625C11.2625 7.575 10.9344 7.73438 10.5781 7.84063C10.2219 7.94688 9.8625 8 9.5 8C8.4625 8 7.57813 7.63438 6.84688 6.90313C6.11563 6.17188 5.75 5.2875 5.75 4.25C5.75 3.2125 6.11563 2.32812 6.84688 1.59687C7.57813 0.865625 8.4625 0.5 9.5 0.5C10.5375 0.5 11.4219 0.865625 12.1531 1.59687C12.8844 2.32812 13.25 3.2125 13.25 4.25C13.25 4.6125 13.1969 4.97188 13.0906 5.32812C12.9844 5.68437 12.825 6.0125 12.6125 6.3125L15.5 9.2L14.45 10.25ZM9.5 6.5C10.125 6.5 10.6562 6.28125 11.0938 5.84375C11.5312 5.40625 11.75 4.875 11.75 4.25C11.75 3.625 11.5312 3.09375 11.0938 2.65625C10.6562 2.21875 10.125 2 9.5 2C8.875 2 8.34375 2.21875 7.90625 2.65625C7.46875 3.09375 7.25 3.625 7.25 4.25C7.25 4.875 7.46875 5.40625 7.90625 5.84375C8.34375 6.28125 8.875 6.5 9.5 6.5Z" fill="#000099"/>
</svg>
