<svg width="32" height="32" viewBox="0 0 32 32" fill="none" xmlns="http://www.w3.org/2000/svg">
<mask id="mask0_1551_6114" style="mask-type:alpha" maskUnits="userSpaceOnUse" x="0" y="0" width="32" height="32">
<rect width="32" height="32" fill="#003865"/>
</mask>
<g mask="url(#mask0_1551_6114)">
<path d="M14.6666 26.6665C14.2888 26.6665 13.9721 26.5387 13.7166 26.2831C13.461 26.0276 13.3332 25.7109 13.3332 25.3331V17.3331L5.5999 7.46646C5.26657 7.02202 5.21657 6.55535 5.4499 6.06646C5.68324 5.57757 6.08879 5.33313 6.66657 5.33313H25.3332C25.911 5.33313 26.3166 5.57757 26.5499 6.06646C26.7832 6.55535 26.7332 7.02202 26.3999 7.46646L18.6666 17.3331V25.3331C18.6666 25.7109 18.5388 26.0276 18.2832 26.2831C18.0277 26.5387 17.711 26.6665 17.3332 26.6665H14.6666ZM15.9999 16.3998L22.5999 7.9998H9.3999L15.9999 16.3998Z" fill="#000099"/>
</g>
</svg>
