<svg width="28" height="28" viewBox="0 0 28 28" fill="none" xmlns="http://www.w3.org/2000/svg">
<mask id="mask0_1624_6046" style="mask-type:alpha" maskUnits="userSpaceOnUse" x="0" y="0" width="28" height="28">
<rect width="28" height="28" fill="#D9D9D9"/>
</mask>
<g mask="url(#mask0_1624_6046)">
<path d="M3.5 11.6667V4.66667H5.83333V7.40833C6.825 6.16389 8.03542 5.20139 9.46458 4.52083C10.8938 3.84028 12.4056 3.5 14 3.5C16.9167 3.5 19.3958 4.52083 21.4375 6.5625C23.4792 8.60417 24.5 11.0833 24.5 14H22.1667C22.1667 11.725 21.3743 9.79514 19.7896 8.21042C18.2049 6.62569 16.275 5.83333 14 5.83333C12.6583 5.83333 11.4042 6.14444 10.2375 6.76667C9.07083 7.38889 8.08889 8.24444 7.29167 9.33333H10.5V11.6667H3.5ZM3.55833 15.1667H5.95C6.18333 16.975 6.92708 18.5062 8.18125 19.7604C9.43542 21.0146 10.9375 21.7778 12.6875 22.05L14.0875 24.5C11.4042 24.5 9.05139 23.6104 7.02917 21.8312C5.00694 20.0521 3.85 17.8306 3.55833 15.1667ZM15.575 17.2083L12.8333 14.4667V8.16667H15.1667V13.5333L16.8 15.1667L15.575 17.2083ZM20.9708 28L20.6208 26.25C20.3875 26.1528 20.1688 26.0507 19.9646 25.9438C19.7604 25.8368 19.5514 25.7056 19.3375 25.55L17.6458 26.075L16.4792 24.0917L17.8208 22.925C17.7819 22.6722 17.7625 22.4194 17.7625 22.1667C17.7625 21.9139 17.7819 21.6611 17.8208 21.4083L16.4792 20.2417L17.6458 18.2583L19.3375 18.7833C19.5514 18.6278 19.7604 18.4965 19.9646 18.3896C20.1688 18.2826 20.3875 18.1806 20.6208 18.0833L20.9708 16.3333H23.3042L23.6542 18.0833C23.8875 18.1806 24.1111 18.2924 24.325 18.4187C24.5389 18.5451 24.7431 18.6861 24.9375 18.8417L26.6292 18.2583L27.7958 20.3L26.4542 21.4667C26.4931 21.7194 26.5125 21.9625 26.5125 22.1958C26.5125 22.4292 26.4931 22.6722 26.4542 22.925L27.7958 24.0917L26.6292 26.075L24.9375 25.55C24.7236 25.7056 24.5146 25.8368 24.3104 25.9438C24.1063 26.0507 23.8875 26.1528 23.6542 26.25L23.3042 28H20.9708ZM22.1375 24.5C22.7792 24.5 23.3285 24.2715 23.7854 23.8146C24.2424 23.3576 24.4708 22.8083 24.4708 22.1667C24.4708 21.525 24.2424 20.9757 23.7854 20.5187C23.3285 20.0618 22.7792 19.8333 22.1375 19.8333C21.4958 19.8333 20.9465 20.0618 20.4896 20.5187C20.0326 20.9757 19.8042 21.525 19.8042 22.1667C19.8042 22.8083 20.0326 23.3576 20.4896 23.8146C20.9465 24.2715 21.4958 24.5 22.1375 24.5Z" fill="#000099"/>
</g>
</svg>
